<svg width="335" height="248" viewBox="0 0 335 248" fill="none" xmlns="http://www.w3.org/2000/svg">
<g clip-path="url(#clip0_9_11)">
<path d="M303.343 246.851H232.312V244.673C232.312 242.782 233.063 240.968 234.402 239.63C235.74 238.293 237.555 237.542 239.447 237.542H296.207C298.1 237.542 299.915 238.293 301.253 239.63C302.591 240.968 303.343 242.782 303.343 244.673V246.851V246.851Z" fill="#E6E6E6"/>
<path d="M266.165 237.976L268.325 237.107C245.723 181.041 247.901 110.31 267.007 49.6352C269.276 42.6051 269.44 35.0654 267.477 27.9436C265.515 20.8218 261.513 14.4286 255.962 9.5505C244.872 -0.33934 229.584 -2.74859 216.06 3.26231C202.711 9.1965 200.871 19.533 200.871 29.8191H203.2C203.2 18.8392 205.548 10.4827 217.007 5.38887C229.682 -0.244446 244.014 2.01508 254.411 11.2873C259.625 15.8688 263.384 21.8735 265.227 28.5626C267.071 35.2517 266.917 42.3334 264.785 48.9363C245.459 110.312 243.409 181.529 266.165 237.976Z" fill="#E6E6E6"/>
<path d="M202.618 64.1486C207.12 64.1486 210.769 60.5016 210.769 56.0027C210.769 51.5038 207.12 47.8567 202.618 47.8567C198.116 47.8567 194.467 51.5038 194.467 56.0027C194.467 60.5016 198.116 64.1486 202.618 64.1486Z" fill="#E6E6E6"/>
<path d="M190.064 70.2034V54.7687H192.466V70.2034C193.155 70.4819 193.725 70.9911 194.08 71.6439C194.434 72.2966 194.55 73.0522 194.408 73.7811C194.266 74.5101 193.875 75.167 193.302 75.6393C192.728 76.1116 192.008 76.3698 191.265 76.3698C190.522 76.3698 189.802 76.1116 189.229 75.6393C188.655 75.167 188.264 74.5101 188.122 73.7811C187.98 73.0522 188.096 72.2966 188.451 71.6439C188.805 70.9911 189.376 70.4819 190.064 70.2034Z" fill="#E6E6E6"/>
<path d="M178.456 42.9108C178.46 39.3627 179.872 35.9611 182.382 33.4522C184.893 30.9434 188.296 29.5321 191.847 29.5281H213.971C217.523 29.5281 220.929 30.938 223.44 33.4478C225.952 35.9575 227.363 39.3615 227.363 42.9108C227.363 46.4601 225.952 49.864 223.44 52.3737C220.929 54.8835 217.523 56.2935 213.971 56.2935H191.847C188.296 56.2894 184.893 54.8782 182.382 52.3693C179.872 49.8604 178.46 46.4588 178.456 42.9108V42.9108Z" fill="#141C23"/>
<path d="M147.283 125.785C149.504 97.383 160.862 83.8509 153.59 75.3648C146.623 67.2361 127.001 68.9152 114.399 76.7153C80.4089 97.7539 67.9562 181.606 111.696 222.574C153.261 261.504 232.033 249.035 249.539 217.171C253.623 209.737 256.868 196.703 250.89 188.81C236.048 169.213 182.086 204.708 158.094 182.508C143.876 169.351 146.064 141.372 147.283 125.785Z" fill="#3F3D56"/>
<path d="M173.266 111.675C172.44 112.054 171.795 112.741 171.468 113.588C171.142 114.435 171.158 115.377 171.516 116.212C171.591 116.381 171.68 116.543 171.782 116.697L164.486 126.432L168.127 131.869L176.678 117.454C177.284 116.981 177.716 116.322 177.908 115.578C178.099 114.835 178.039 114.049 177.737 113.343C177.561 112.943 177.307 112.582 176.992 112.279C176.676 111.977 176.304 111.74 175.896 111.582C175.489 111.423 175.054 111.347 174.617 111.356C174.18 111.365 173.749 111.461 173.349 111.637C173.321 111.649 173.293 111.662 173.266 111.675Z" fill="#FFB6B6"/>
<path d="M173.26 128.459C173.737 128.883 172.413 129.405 171.012 128.581C170.611 128.342 170.44 128.243 170.395 128.306C170.282 128.464 170.94 129.625 170.764 132.205C170.656 133.745 168.097 136.639 165.192 139.462C161.264 143.279 156.696 146.962 156.696 146.962L155.092 145.679L138.276 132.205L135.439 128.279C135.698 126.729 136.089 125.204 136.605 123.719C137.317 121.664 138.163 119.658 139.137 117.714C139.659 116.656 140.195 115.647 140.709 114.72L149.718 124.642L157.268 132.952C157.268 132.952 159.466 129.414 161.169 128.45C161.386 128.312 161.633 128.227 161.89 128.203C163.611 128.122 163.714 127.185 161.719 125.146C159.723 123.107 162.241 125.011 164.016 124.462C165.791 123.913 164.016 124.462 164.39 123.089C164.764 121.716 169.742 118.961 169.742 118.961L169.949 119.145L173.71 122.463L174.787 123.413C174.787 123.413 173.611 126.636 173.287 127.316C172.962 127.996 172.787 128.032 173.26 128.459Z" fill="#141C23"/>
<path d="M272.415 190.996L272.598 186.031L253.52 182.961L253.25 190.289L272.415 190.996Z" fill="#FFB6B6"/>
<path d="M268.952 192.491L268.771 184.541L272.172 184.666L277.663 177.316C277.934 176.953 278.314 176.686 278.748 176.554C279.181 176.423 279.646 176.433 280.073 176.583C280.501 176.734 280.869 177.017 281.124 177.392C281.379 177.767 281.507 178.213 281.491 178.665L281.142 188.11L277.718 189.614L281.058 190.374L280.927 193.935L268.952 192.491Z" fill="#2F2E41"/>
<path d="M165.042 192.93L225.469 194.461C225.469 194.461 251.563 195.967 257.686 191.987L264.142 191.172L264.492 181.695C264.492 181.695 260.544 181.724 258.274 180.667C256.004 179.61 257.582 178.317 255.418 179.588C253.253 180.86 253.482 181.013 251.809 180.429C250.135 179.844 173.405 168.156 173.405 168.156L165.042 192.93Z" fill="#2F2E41"/>
<path d="M244.669 188.817L248.183 185.302L236.286 170.084L231.1 175.273L244.669 188.817Z" fill="#FFB6B6"/>
<path d="M241.113 185.758L246.391 179.807L248.799 182.211L257.826 180.554C258.272 180.472 258.732 180.535 259.14 180.733C259.547 180.931 259.881 181.255 260.092 181.656C260.303 182.057 260.38 182.515 260.312 182.962C260.244 183.41 260.034 183.825 259.714 184.145L253.031 190.832L249.497 189.607L251.429 192.435L248.909 194.956L241.113 185.758Z" fill="#2F2E41"/>
<path d="M141.202 159.857L141.803 173.812C142.51 190.241 160.614 200.184 174.652 191.607C174.911 191.448 175.17 191.285 175.431 191.115C175.431 191.115 180.753 189.687 180.591 187.425C180.43 185.163 181.73 184.062 182.88 184.679C184.031 185.296 199.095 163.93 199.095 163.93C199.095 163.93 230.395 179.533 237.299 183.206C237.299 183.206 243.791 173.062 243.321 173.168C242.85 173.274 204.6 146.52 204.6 146.52C204.6 146.52 198.368 140.217 190.639 144.379C190.478 144.99 190.615 145.011 190.615 145.011L165.081 165.804L161.473 158.957L141.202 159.857Z" fill="#2F2E41"/>
<path d="M165.277 142.411C165.229 143.055 165.137 143.696 165.003 144.328C164.819 145.244 164.522 146.133 164.12 146.975C164.12 146.975 164.12 147.916 162.318 151.067C160.516 154.219 162.768 152.868 164.12 155.209C165.471 157.546 164.12 156.47 162.62 157.973C162.188 158.411 161.881 158.956 161.731 159.552C161.582 160.148 161.594 160.774 161.768 161.363C161.768 161.363 142.416 161.377 138.813 160.026C135.209 158.676 134.389 151.068 137.619 150.316C140.844 149.564 136.641 148.817 134.745 147.083C132.848 145.35 136.641 142.514 136.641 142.514C136.641 142.514 135.078 139.818 135.209 130.764C135.227 129.932 135.304 129.101 135.439 128.279C135.698 126.729 136.089 125.204 136.605 123.719C137.317 121.664 138.162 119.658 139.137 117.714C139.659 116.656 140.195 115.647 140.709 114.72C140.79 114.576 140.867 114.436 140.948 114.297C141.925 112.568 142.817 111.155 143.407 110.25C143.862 109.547 144.137 109.151 144.137 109.151L147.416 103.452L158.363 108.58L157.741 116.966L159.629 123.291L160.498 126.204L161.169 128.45L162.205 131.93C162.205 131.93 161.921 131.944 162.259 132.408C163.815 134.475 164.824 136.901 165.192 139.462C165.321 140.439 165.35 141.427 165.277 142.411V142.411Z" fill="#141C23"/>
<path d="M196.889 143.314L196.684 143.248L170.484 134.817L180.138 103.164C180.331 102.533 180.664 101.955 181.112 101.472C181.561 100.989 182.113 100.614 182.728 100.375C183.342 100.136 184.003 100.04 184.66 100.094C185.317 100.148 185.954 100.35 186.521 100.685L203.264 110.57C204.589 111.352 205.598 112.574 206.113 114.023C206.628 115.472 206.617 117.056 206.082 118.498L196.889 143.314Z" fill="#2F2E41"/>
<path d="M196.996 145.327L170.585 136.827L180.24 105.174C180.432 104.544 180.765 103.966 181.213 103.483C181.662 103 182.214 102.625 182.829 102.386C183.443 102.147 184.104 102.051 184.761 102.105C185.418 102.158 186.055 102.36 186.622 102.695L204.164 111.448C206.8 113.004 206.738 117.03 205.514 120.334L196.996 145.327Z" fill="#141C23"/>
<path d="M194.351 147.618C193.743 147.961 193.07 148.173 192.375 148.242C191.681 148.311 190.979 148.235 190.315 148.019L173.434 142.586C172.139 142.163 171.061 141.251 170.43 140.044C169.798 138.838 169.664 137.432 170.056 136.128L178.519 108.38C178.688 107.826 178.967 107.311 179.337 106.865C179.708 106.42 180.165 106.053 180.679 105.786C181.194 105.519 181.757 105.357 182.335 105.31C182.913 105.264 183.494 105.333 184.045 105.514L201.539 111.254C202.373 111.527 203.143 111.965 203.804 112.541C204.466 113.117 205.005 113.819 205.39 114.607C205.775 115.395 205.999 116.252 206.047 117.127C206.095 118.003 205.968 118.879 205.671 119.704L196.622 144.916C196.216 146.061 195.41 147.02 194.351 147.618V147.618Z" fill="#3F3D56"/>
<path d="M157.744 103.549C164.422 103.549 169.835 98.1394 169.835 91.466C169.835 84.7927 164.422 79.3828 157.744 79.3828C151.066 79.3828 145.653 84.7927 145.653 91.466C145.653 98.1394 151.066 103.549 157.744 103.549Z" fill="#FFB6B6"/>
<path d="M116.858 103.731C117.968 105.881 119.787 107.58 122.008 108.542C122.894 108.945 123.825 109.24 124.782 109.42C125.053 108.348 125.486 107.323 126.067 106.382C125.873 107.443 125.873 108.53 126.067 109.591C127.525 109.71 128.992 109.528 130.376 109.056C131.736 108.594 132.969 107.821 133.978 106.8C134.988 105.778 135.744 104.536 136.189 103.171C137.152 99.9679 136.115 96.547 136.033 93.2038C135.949 89.8603 137.538 85.8612 140.859 85.4475C143.388 85.132 143.076 85.377 144.893 87.1627C142.351 89.9849 148.548 102.485 151.874 101.933C153.754 101.62 155.138 100.129 155.51 100.18C157.414 104.841 151.686 111.45 156.229 113.62L155.892 113.174C153.514 109.248 160.55 102.617 158.172 98.6915C157.509 97.5932 156.82 96.3056 157.23 95.0906C157.62 93.9355 159.591 93.5699 160.007 94.6213C159.331 92.2115 161.218 89.3831 163.725 89.1371C165.953 88.9175 165.824 89.552 167.948 90.1308C168.219 89.2166 168.61 88.3422 169.111 87.5303C168.941 88.4565 168.92 89.4038 169.049 90.3367C169.815 90.428 170.59 90.2641 171.253 89.8704C173.214 88.6956 173.272 85.6629 171.925 83.8171C170.575 81.971 168.315 81.0595 166.134 80.3698C166.114 75.7605 153.703 73.5539 151.421 77.8393C151.186 74.3694 147.206 72.032 143.777 72.6215C140.349 73.2109 137.644 75.9583 135.995 79.0207C134.346 82.0805 133.528 85.5068 132.321 88.766C131.114 92.0253 129.388 95.2753 126.498 97.2091C123.608 99.1404 119.313 99.3159 116.9 96.8126C116.35 97.8814 116.059 99.0648 116.052 100.267C116.045 101.469 116.321 102.656 116.858 103.731V103.731Z" fill="#2F2E41"/>
<path d="M129.264 158.987C129.515 158.787 129.786 158.616 130.074 158.475C134.702 156.173 149.093 150.198 160.347 150.443C181.999 150.915 209.554 174.796 203.141 190.832C198.261 203.035 174.001 209.977 156.292 204.425C131.484 196.646 121.691 165.022 129.264 158.987Z" fill="#3F3D56"/>
<path d="M39.3776 246.897C32.3025 245.563 26.0399 213.709 39.9598 198.021C44.729 192.646 50.6779 190.307 58.591 188.13C104.137 175.599 138.875 187.541 143.543 190.457C148.201 193.367 156.367 237.201 145.925 243.406C140.05 246.897 128.405 248.643 122.636 244.57C114.146 238.577 128.396 223.031 122.054 212.568C114.856 200.694 76.957 196.694 57.956 208.495C37.6839 221.085 79.4984 254.461 39.3776 246.897Z" fill="#F2F2F2"/>
<path d="M86.6802 192.739H59.6511C52.9787 186.348 48.208 180.189 52.0275 175.077C52.0275 173.608 52.6116 172.198 53.6514 171.159C54.6912 170.12 56.1014 169.536 57.5719 169.536H88.7594C90.2298 169.536 91.6401 170.12 92.6799 171.159C93.7197 172.198 94.3038 173.608 94.3038 175.077C95.758 180.902 93.16 186.79 86.6802 192.739Z" fill="#CCCCCC"/>
<path d="M81.826 162.561C81.5695 162.572 81.3157 162.505 81.0987 162.368C80.8818 162.231 80.7124 162.03 80.6134 161.793C80.5143 161.557 80.4905 161.295 80.5451 161.045C80.5997 160.794 80.7301 160.566 80.9186 160.392L81.0044 160.051C80.9931 160.024 80.9817 159.996 80.9703 159.969C80.7119 159.359 80.279 158.839 79.7259 158.475C79.1728 158.11 78.5241 157.917 77.8615 157.919C77.1988 157.921 76.5516 158.12 76.0012 158.488C75.4508 158.857 75.0218 159.38 74.768 159.992C73.7535 162.434 72.462 164.88 72.144 167.461C72.0039 168.602 72.063 169.759 72.3186 170.88C69.936 165.686 68.6988 160.041 68.6908 154.327C68.6903 152.893 68.77 151.461 68.9296 150.036C69.0615 148.867 69.2444 147.708 69.4784 146.556C70.7554 140.308 73.4973 134.452 77.4787 129.469C79.4057 128.418 80.9641 126.802 81.9439 124.839C82.2989 124.133 82.5497 123.38 82.6887 122.603C82.4713 122.631 81.8691 119.323 82.033 119.12C81.7301 118.66 81.1879 118.432 80.857 117.983C79.2116 115.754 76.9445 116.143 75.7611 119.173C73.2329 120.448 73.2084 122.563 74.7597 124.597C75.7466 125.891 75.8822 127.642 76.7482 129.027C76.6591 129.141 76.5664 129.252 76.4773 129.366C74.8487 131.458 73.4293 133.706 72.2394 136.075C72.5288 133.421 72.1834 130.735 71.2317 128.24C70.2672 125.915 68.4593 123.956 66.8672 121.946C64.9549 119.531 61.0335 120.585 60.6965 123.646C60.6933 123.676 60.6901 123.705 60.687 123.735C60.9235 123.868 61.1549 124.01 61.3814 124.16C61.666 124.35 61.8864 124.621 62.014 124.938C62.1415 125.256 62.1701 125.604 62.0961 125.938C62.0221 126.272 61.8489 126.576 61.5992 126.809C61.3494 127.043 61.0349 127.196 60.6967 127.248L60.662 127.254C60.7463 128.105 60.8952 128.949 61.1075 129.779C59.0651 137.672 63.4745 140.547 69.7706 140.676C69.9096 140.748 70.0451 140.819 70.184 140.887C68.9885 144.272 68.2386 147.799 67.9532 151.378C67.7916 153.49 67.8011 155.611 67.9817 157.721L67.971 157.646C67.5148 155.3 66.2624 153.183 64.4252 151.652C61.6965 149.412 57.8414 148.587 54.8976 146.787C54.5848 146.586 54.221 146.479 53.8492 146.478C53.4774 146.477 53.1131 146.583 52.7993 146.782C52.4855 146.981 52.2352 147.266 52.078 147.602C51.9208 147.939 51.8632 148.314 51.912 148.682C51.916 148.708 51.92 148.734 51.9241 148.761C52.3629 148.939 52.7902 149.145 53.2034 149.377C53.4399 149.51 53.6714 149.652 53.8978 149.801C54.1824 149.991 54.4028 150.263 54.5304 150.58C54.6579 150.897 54.6865 151.246 54.6125 151.58C54.5385 151.914 54.3653 152.217 54.1156 152.451C53.8658 152.685 53.5513 152.838 53.2131 152.89L53.1784 152.895C53.1535 152.899 53.1321 152.902 53.1072 152.906C53.857 154.695 54.9094 156.342 56.2182 157.774C57.4953 164.665 62.9804 165.319 68.8476 163.312H68.8512C69.495 166.108 70.4277 168.829 71.6344 171.432H81.5769C81.6126 171.322 81.6446 171.208 81.6767 171.097C80.7564 171.155 79.8325 171.1 78.9255 170.934C79.6632 170.029 80.4009 169.117 81.1386 168.213C81.155 168.196 81.1705 168.178 81.1849 168.159C81.5591 167.696 81.9368 167.237 82.311 166.774L82.3112 166.773C82.3311 165.354 82.1682 163.938 81.8263 162.561L81.826 162.561Z" fill="#CCCCCC"/>
<path d="M115.738 191.291C115.903 191.771 116.216 192.186 116.631 192.478C117.047 192.769 117.545 192.92 118.052 192.911L127.968 192.656C128.479 192.646 128.973 192.471 129.377 192.157C129.78 191.843 130.071 191.407 130.206 190.914L131.61 175.92C132.107 176.145 132.649 176.256 133.196 176.245C134.155 176.221 135.065 175.818 135.725 175.123C136.386 174.429 136.744 173.5 136.72 172.542C136.696 171.584 136.292 170.674 135.597 170.014C134.902 169.353 133.973 168.996 133.014 169.02C132.796 169.019 132.578 169.042 132.365 169.087C132.132 168.836 131.85 168.637 131.536 168.501C131.221 168.366 130.882 168.297 130.54 168.301L115.288 168.694C115.161 168.699 115.035 168.715 114.911 168.741C114.577 168.803 114.26 168.937 113.981 169.132C113.702 169.327 113.469 169.579 113.296 169.872C113.123 170.165 113.015 170.492 112.979 170.83C112.943 171.168 112.98 171.51 113.087 171.832L115.738 191.291ZM131.897 174.902L132.896 171.328C133.009 170.915 133.012 170.48 132.903 170.066C132.952 170.066 132.995 170.043 133.043 170.043C133.728 170.029 134.39 170.287 134.884 170.76C135.379 171.233 135.666 171.883 135.682 172.567C135.698 173.251 135.442 173.913 134.97 174.409C134.498 174.905 133.849 175.193 133.164 175.211C132.722 175.225 132.284 175.118 131.897 174.902V174.902Z" fill="#CCCCCC"/>
<path d="M114.911 168.741C115.236 170.598 118.89 171.903 123.283 171.676C127.322 171.49 130.625 170.073 131.231 168.393C131.007 168.327 130.774 168.296 130.54 168.301L115.288 168.694C115.161 168.699 115.035 168.715 114.911 168.741V168.741Z" fill="#F5F5F5"/>
<path d="M0.531033 247.6L334.469 247.737C334.61 247.737 334.745 247.681 334.844 247.582C334.944 247.482 335 247.347 335 247.207C335 247.066 334.944 246.931 334.844 246.831C334.745 246.732 334.61 246.676 334.469 246.676L0.531033 246.539C0.390194 246.539 0.255124 246.595 0.155536 246.694C0.0559472 246.794 0 246.929 0 247.07C0 247.21 0.0559472 247.345 0.155536 247.445C0.255124 247.544 0.390194 247.6 0.531033 247.6V247.6Z" fill="#CACACA"/>
<path d="M187.826 128.995C186.918 129.028 186.059 129.414 185.431 130.07C184.803 130.727 184.457 131.603 184.465 132.511C184.47 132.695 184.49 132.879 184.525 133.06L174.044 139.244L175.313 145.662L188.753 135.641C189.494 135.438 190.147 134.995 190.61 134.382C191.073 133.769 191.32 133.021 191.312 132.253C191.303 131.816 191.209 131.385 191.033 130.985C190.858 130.584 190.606 130.223 190.291 129.92C189.975 129.617 189.604 129.379 189.197 129.22C188.789 129.061 188.355 128.983 187.918 128.992C187.887 128.992 187.857 128.993 187.826 128.995Z" fill="#FFB6B6"/>
<path d="M179.241 143.736C178.961 143.36 178.84 143.203 178.777 143.246C178.613 143.345 178.77 144.671 177.616 146.983C175.991 150.23 158.954 155.203 158.954 155.203L156.856 151.365L147.63 134.499L144.45 120.981C144.338 120.51 144.284 120.026 144.289 119.542C147.124 117.548 150.135 115.816 153.285 114.367C154.544 115.081 155.503 116.223 155.988 117.585L162.339 135.382L164.874 142.488C164.874 142.488 169.344 139.293 170.966 139.879C172.585 140.469 173.045 139.642 171.987 136.993C170.928 134.345 172.517 137.071 174.366 137.244C176.218 137.42 174.366 137.244 175.24 136.121C176.115 134.997 181.772 134.364 181.772 134.364L181.892 134.615L184.084 139.121L184.712 140.416C184.712 140.416 182.388 142.936 181.827 143.438C181.264 143.944 181.09 143.909 181.366 144.485C181.638 145.059 180.215 145.033 179.241 143.736Z" fill="#141C23"/>
</g>
<defs>
<clipPath id="clip0_9_11">
<rect width="335" height="248" fill="white"/>
</clipPath>
</defs>
</svg>
