<svg width="18" height="18" viewBox="0 0 18 18" fill="none" xmlns="http://www.w3.org/2000/svg">
<path d="M13 1H5C2.79086 1 1 2.79086 1 5V13C1 15.2091 2.79086 17 5 17H13C15.2091 17 17 15.2091 17 13V5C17 2.79086 15.2091 1 13 1Z" stroke="#F5F5F5" stroke-width="2" stroke-linecap="round" stroke-linejoin="round"/>
<path d="M12.2 8.496C12.2988 9.16179 12.1851 9.84177 11.8751 10.4392C11.5651 11.0366 11.0746 11.5211 10.4733 11.8237C9.87213 12.1263 9.1908 12.2317 8.52628 12.1247C7.86175 12.0178 7.24786 11.7041 6.77192 11.2281C6.29598 10.7522 5.98223 10.1383 5.8753 9.47377C5.76837 8.80924 5.8737 8.12791 6.17631 7.5267C6.47892 6.92548 6.9634 6.43499 7.56083 6.12499C8.15827 5.81499 8.83825 5.70127 9.50405 5.8C10.1832 5.9007 10.8119 6.21717 11.2974 6.70264C11.7829 7.18812 12.0993 7.81686 12.2 8.496Z" stroke="#F5F5F5" stroke-width="2" stroke-linecap="round" stroke-linejoin="round"/>
<path d="M13.4 4.60004H13.4083" stroke="#F5F5F5" stroke-width="2" stroke-linecap="round" stroke-linejoin="round"/>
</svg>
